<svg xmlns="http://www.w3.org/2000/svg" xmlns:xlink="http://www.w3.org/1999/xlink" width="190" zoomAndPan="magnify" viewBox="0 0 142.5 44.999999" height="60" preserveAspectRatio="xMidYMid meet" version="1.0"><defs><g/><clipPath id="fdc7c5f485"><path d="M 6 5 L 48.75 5 L 48.75 39 L 6 39 Z M 6 5 " clip-rule="nonzero"/></clipPath></defs><g clip-path="url(#fdc7c5f485)"><path fill="#25995c" d="M 39.203125 9.867188 C 19.046875 9.777344 8.226562 19.1875 7.300781 38.664062 C 7.289062 38.90625 6.933594 38.921875 6.898438 38.679688 C 6 32.316406 6.171875 26.515625 7.789062 21.472656 C 13.121094 4.835938 33.457031 2.652344 47.886719 7.917969 C 48.605469 8.179688 48.75 9.109375 48.152344 9.585938 C 36.898438 18.585938 38.429688 43.144531 11.035156 32.5 C 15.3125 19.207031 24.085938 10.96875 39.203125 9.867188 " fill-opacity="1" fill-rule="evenodd"/></g><g fill="#25995c" fill-opacity="1"><g transform="translate(49.082884, 32.278462)"><g><path d="M 1.664062 -10.855469 C 1.664062 -4.109375 6.652344 0.421875 12.84375 0.421875 C 16.398438 0.421875 19.363281 -1.074219 21.386719 -3.324219 L 21.386719 -11.183594 L 11.214844 -11.183594 L 11.214844 -8.769531 L 18.679688 -8.769531 L 18.679688 -4.335938 C 17.605469 -3.261719 15.453125 -1.988281 12.84375 -1.988281 C 8.085938 -1.988281 4.464844 -5.703125 4.464844 -10.855469 C 4.464844 -16.039062 8.085938 -19.691406 12.84375 -19.691406 C 15.453125 -19.691406 17.765625 -18.453125 19.136719 -16.691406 L 21.289062 -18.027344 C 19.363281 -20.40625 16.691406 -22.101562 12.84375 -22.101562 C 6.652344 -22.101562 1.664062 -17.605469 1.664062 -10.855469 Z M 1.664062 -10.855469 "/></g></g></g><g fill="#25995c" fill-opacity="1"><g transform="translate(72.32017, 32.278462)"><g><path d="M 4.890625 0 L 4.890625 -11.148438 C 5.605469 -12.421875 7.660156 -13.660156 9.160156 -13.660156 C 9.550781 -13.660156 9.84375 -13.625 10.136719 -13.5625 L 10.136719 -16.070312 C 7.988281 -16.070312 6.160156 -14.867188 4.890625 -13.203125 L 4.890625 -15.746094 L 2.445312 -15.746094 L 2.445312 0 Z M 4.890625 0 "/></g></g></g><g fill="#25995c" fill-opacity="1"><g transform="translate(83.075157, 32.278462)"><g><path d="M 1.53125 -7.890625 C 1.53125 -2.964844 4.890625 0.390625 9.550781 0.390625 C 12.128906 0.390625 14.246094 -0.457031 15.8125 -2.019531 L 14.636719 -3.617188 C 13.398438 -2.347656 11.574219 -1.628906 9.78125 -1.628906 C 6.390625 -1.628906 4.304688 -4.109375 4.109375 -7.074219 L 16.855469 -7.074219 L 16.855469 -7.695312 C 16.855469 -12.421875 14.050781 -16.136719 9.289062 -16.136719 C 4.792969 -16.136719 1.53125 -12.453125 1.53125 -7.890625 Z M 9.257812 -14.117188 C 12.84375 -14.117188 14.410156 -11.214844 14.441406 -8.867188 L 4.109375 -8.867188 C 4.238281 -11.28125 5.902344 -14.117188 9.257812 -14.117188 Z M 9.257812 -14.117188 "/></g></g></g><g fill="#25995c" fill-opacity="1"><g transform="translate(101.423817, 32.278462)"><g><path d="M 1.53125 -7.890625 C 1.53125 -2.964844 4.890625 0.390625 9.550781 0.390625 C 12.128906 0.390625 14.246094 -0.457031 15.8125 -2.019531 L 14.636719 -3.617188 C 13.398438 -2.347656 11.574219 -1.628906 9.78125 -1.628906 C 6.390625 -1.628906 4.304688 -4.109375 4.109375 -7.074219 L 16.855469 -7.074219 L 16.855469 -7.695312 C 16.855469 -12.421875 14.050781 -16.136719 9.289062 -16.136719 C 4.792969 -16.136719 1.53125 -12.453125 1.53125 -7.890625 Z M 9.257812 -14.117188 C 12.84375 -14.117188 14.410156 -11.214844 14.441406 -8.867188 L 4.109375 -8.867188 C 4.238281 -11.28125 5.902344 -14.117188 9.257812 -14.117188 Z M 9.257812 -14.117188 "/></g></g></g><g fill="#25995c" fill-opacity="1"><g transform="translate(119.772477, 32.278462)"><g><path d="M 15.519531 0 L 15.519531 -11.050781 C 15.519531 -14.472656 13.789062 -16.136719 10.496094 -16.136719 C 8.148438 -16.136719 6 -14.769531 4.890625 -13.464844 L 4.890625 -15.746094 L 2.445312 -15.746094 L 2.445312 0 L 4.890625 0 L 4.890625 -11.507812 C 5.804688 -12.777344 7.628906 -13.953125 9.550781 -13.953125 C 11.671875 -13.953125 13.074219 -13.074219 13.074219 -10.300781 L 13.074219 0 Z M 15.519531 0 "/></g></g></g></svg>