<svg xmlns="http://www.w3.org/2000/svg" xmlns:xlink="http://www.w3.org/1999/xlink" width="500" zoomAndPan="magnify" viewBox="0 0 375 374.999991" height="500" preserveAspectRatio="xMidYMid meet" version="1.0"><defs><g/></defs><path fill="#25995c" d="M 110.3125 158.925781 C 66.113281 158.726562 42.386719 179.457031 40.355469 222.375 C 40.332031 222.914062 39.546875 222.945312 39.46875 222.410156 C 37.5 208.386719 37.878906 195.609375 41.421875 184.5 C 53.113281 147.835938 97.710938 143.027344 129.355469 154.628906 C 130.933594 155.207031 131.253906 157.253906 129.941406 158.304688 C 105.257812 178.136719 108.617188 232.253906 48.539062 208.800781 C 57.921875 179.503906 77.160156 161.347656 110.3125 158.925781 " fill-opacity="1" fill-rule="evenodd"/><g fill="#25995c" fill-opacity="1"><g transform="translate(137.770248, 209.694376)"><g><path d="M 3.828125 -24.992188 C 3.828125 -9.457031 15.308594 0.976562 29.570312 0.976562 C 37.75 0.976562 44.578125 -2.476562 49.230469 -7.65625 L 49.230469 -25.742188 L 25.816406 -25.742188 L 25.816406 -20.1875 L 43 -20.1875 L 43 -9.980469 C 40.523438 -7.503906 35.570312 -4.578125 29.570312 -4.578125 C 18.613281 -4.578125 10.28125 -13.132812 10.28125 -24.992188 C 10.28125 -36.921875 18.613281 -45.328125 29.570312 -45.328125 C 35.570312 -45.328125 40.902344 -42.476562 44.050781 -38.425781 L 49.003906 -41.5 C 44.578125 -46.980469 38.425781 -50.882812 29.570312 -50.882812 C 15.308594 -50.882812 3.828125 -40.523438 3.828125 -24.992188 Z M 3.828125 -24.992188 "/></g></g></g><g fill="#25995c" fill-opacity="1"><g transform="translate(191.277235, 209.694376)"><g><path d="M 11.257812 0 L 11.257812 -25.664062 C 12.90625 -28.59375 17.636719 -31.445312 21.089844 -31.445312 C 21.988281 -31.445312 22.664062 -31.371094 23.339844 -31.21875 L 23.339844 -36.996094 C 18.386719 -36.996094 14.183594 -34.222656 11.257812 -30.394531 L 11.257812 -36.246094 L 5.628906 -36.246094 L 5.628906 0 Z M 11.257812 0 "/></g></g></g><g fill="#25995c" fill-opacity="1"><g transform="translate(216.04204, 209.694376)"><g><path d="M 3.527344 -18.160156 C 3.527344 -6.828125 11.257812 0.902344 21.988281 0.902344 C 27.917969 0.902344 32.796875 -1.050781 36.398438 -4.652344 L 33.695312 -8.332031 C 30.84375 -5.402344 26.640625 -3.753906 22.515625 -3.753906 C 14.710938 -3.753906 9.90625 -9.457031 9.457031 -16.285156 L 38.800781 -16.285156 L 38.800781 -17.710938 C 38.800781 -28.59375 32.34375 -37.148438 21.386719 -37.148438 C 11.03125 -37.148438 3.527344 -28.667969 3.527344 -18.160156 Z M 21.3125 -32.496094 C 29.570312 -32.496094 33.171875 -25.816406 33.246094 -20.414062 L 9.457031 -20.414062 C 9.757812 -25.964844 13.582031 -32.496094 21.3125 -32.496094 Z M 21.3125 -32.496094 "/></g></g></g><g fill="#25995c" fill-opacity="1"><g transform="translate(258.292295, 209.694376)"><g><path d="M 3.527344 -18.160156 C 3.527344 -6.828125 11.257812 0.902344 21.988281 0.902344 C 27.917969 0.902344 32.796875 -1.050781 36.398438 -4.652344 L 33.695312 -8.332031 C 30.84375 -5.402344 26.640625 -3.753906 22.515625 -3.753906 C 14.710938 -3.753906 9.90625 -9.457031 9.457031 -16.285156 L 38.800781 -16.285156 L 38.800781 -17.710938 C 38.800781 -28.59375 32.34375 -37.148438 21.386719 -37.148438 C 11.03125 -37.148438 3.527344 -28.667969 3.527344 -18.160156 Z M 21.3125 -32.496094 C 29.570312 -32.496094 33.171875 -25.816406 33.246094 -20.414062 L 9.457031 -20.414062 C 9.757812 -25.964844 13.582031 -32.496094 21.3125 -32.496094 Z M 21.3125 -32.496094 "/></g></g></g><g fill="#25995c" fill-opacity="1"><g transform="translate(300.542549, 209.694376)"><g><path d="M 35.722656 0 L 35.722656 -25.441406 C 35.722656 -33.320312 31.746094 -37.148438 24.164062 -37.148438 C 18.761719 -37.148438 13.808594 -33.996094 11.257812 -30.996094 L 11.257812 -36.246094 L 5.628906 -36.246094 L 5.628906 0 L 11.257812 0 L 11.257812 -26.492188 C 13.359375 -29.417969 17.5625 -32.121094 21.988281 -32.121094 C 26.867188 -32.121094 30.09375 -30.09375 30.09375 -23.714844 L 30.09375 0 Z M 35.722656 0 "/></g></g></g></svg>